<svg version="1.1" id="aria-wtf-logo" xmlns="http://www.w3.org/2000/svg" x="0" y="0" viewBox="0 0 150 150" style="enable-background:new 0 0 150 150" xml:space="preserve"><circle fill="currentColor" cx="75" cy="75" r="75"/><circle fill="#fff" cx="75" cy="111.5" r="10.1"/><path fill="#fff" d="m64.4 82.7-22.2 6.1c-2.9.8-4.6 3.7-3.8 6.6.8 2.9 3.8 4.5 6.7 3.7l24.4-6.8c3.6-1.1 7.4-1.1 11 0l24.4 6.8c2.9.8 5.9-.9 6.7-3.7.8-2.9-.9-5.8-3.7-6.6l-22.2-6.1c-1.8-.5-3-2.1-3-3.9v-7.3c0-3.6.8-7.1 2.4-10.3L97 36.5c1.3-2.7.2-5.8-2.5-7.1h-.1c-2.7-1.3-5.9-.2-7.2 2.5L75 56.8 62.9 31.9c-1.3-2.7-4.5-3.8-7.2-2.5-2.7 1.2-3.8 4.4-2.6 7.1v.1L65 61.2c1.6 3.2 2.4 6.7 2.4 10.3v7.3c0 1.8-1.2 3.4-3 3.9z"/></svg>